<svg xmlns="http://www.w3.org/2000/svg" style="display: none;">
  <!-- Framework Icons -->
  <symbol id="icon-react" viewBox="0 0 512 512">
    <circle cx="256" cy="256" r="32" fill="currentColor"/>
    <ellipse cx="256" cy="256" rx="185" ry="75" fill="none" stroke="currentColor" strokeWidth="24"/>
    <ellipse cx="256" cy="256" rx="185" ry="75" fill="none" stroke="currentColor" strokeWidth="24" transform="rotate(60 256 256)"/>
    <ellipse cx="256" cy="256" rx="185" ry="75" fill="none" stroke="currentColor" strokeWidth="24" transform="rotate(120 256 256)"/>
  </symbol>

  <symbol id="icon-check" viewBox="0 0 512 512">
    <path fill="currentColor" d="M470.6 105.4c12.5 12.5 12.5 32.8 0 45.3l-256 256c-12.5 12.5-32.8 12.5-45.3 0l-128-128c-12.5-12.5-12.5-32.8 0-45.3s32.8-12.5 45.3 0L192 338.7 425.4 105.4c12.5-12.5 32.8-12.5 45.3 0z"/>
  </symbol>

  <symbol id="icon-angular" viewBox="0 0 512 512">
    <path fill="currentColor" d="M256 48l-200 72 32 268 168 76 168-76 32-268-200-72zm0 72l120 280h-48l-24-60h-96l-24 60h-48L256 120zm0 80l-32 80h64l-32-80z"/>
  </symbol>

  <symbol id="icon-vue" viewBox="0 0 512 512">
    <path fill="currentColor" d="M256 144l-56-96H96L256 336 416 48h-104l-56 96zm0 48l-120 208h48l72-124 72 124h48L256 192z"/>
  </symbol>

  <symbol id="icon-nextjs" viewBox="0 0 512 512">
    <circle cx="256" cy="256" r="232" fill="currentColor"/>
    <path fill="#ffffff" d="M160 128h40l120 200v-200h40v256h-40L200 328v56h-40V128z"/>
  </symbol>

  <symbol id="icon-nodejs" viewBox="0 0 512 512">
    <path fill="currentColor" d="M429.76 130.07L274.33 36.85a37 37 0 0 0-36.65 0L81.24 130.07a38.2 38.2 0 0 0-19.07 33.13v186.43a38.2 38.2 0 0 0 19.07 33.13l155.43 93.13a37 37 0 0 0 36.65 0l155.43-93.13a38.2 38.2 0 0 0 19.07-33.13V163.2a38.2 38.2 0 0 0-19.06-33.13z"/>
  </symbol>

  <symbol id="icon-nuxt" viewBox="0 0 512 512">
    <path fill="currentColor" d="M400 352h-50.26l-98-168-98 168H103c-19.94 0-33.26-16-32.12-32 2.65-37.5 26.5-70 54.12-70h62.37l-32.37-56c-19.94 0-33.26-16-32.12-32 2.65-37.5 26.5-70 54.12-70 20.12 0 40.37 16 56 48l98 168 98-168c15.63-32 35.88-48 56-48 27.62 0 51.47 32.5 54.12 70 1.14 16-12.18 32-32.12 32l-32.37 56H437c27.62 0 51.47 32.5 54.12 70 1.14 16-12.18 32-32.12 32z"/>
  </symbol>

  <symbol id="icon-redux" viewBox="0 0 512 512">
    <path fill="currentColor" d="M256 64c53 0 96 43 96 96 0 24-9 46-24 63 21 9 36 30 36 54 0 33-27 60-60 60-15 0-29-6-40-15-11 9-25 15-40 15-33 0-60-27-60-60 0-24 15-45 36-54-15-17-24-39-24-63 0-53 43-96 96-96zm0 64c-18 0-32 14-32 32s14 32 32 32 32-14 32-32-14-32-32-32zm-80 160c18 0 32 14 32 32s-14 32-32 32-32-14-32-32 14-32 32-32zm160 0c18 0 32 14 32 32s-14 32-32 32-32-14-32-32 14-32 32-32z"/>
  </symbol>

  <symbol id="icon-typescript" viewBox="0 0 512 512">
    <rect fill="currentColor" width="512" height="512" rx="50"/>
    <path fill="#fff" d="M180 200h60v200h40V200h60v-40H180v40zm130-40h100v40h-60v200h-40V200h-60v-40h60z"/>
  </symbol>

  <!-- Design Tools -->
  <symbol id="icon-figma" viewBox="0 0 512 512">
    <path fill="currentColor" d="M200 0h112v112H200V0zM0 200h112v112H0V200zm312-88h112v112H312V112zM0 312h112v112H0V312zm312 0h112v112H312V312z"/>
  </symbol>

  <symbol id="icon-photoshop" viewBox="0 0 512 512">
    <rect fill="currentColor" width="512" height="512" rx="50"/>
    <path fill="#fff" d="M131.6 165.4h73.2c35.6 0 60.8 16.8 60.8 51.2 0 38-30 55.6-67.6 55.6h-28v56h-38.4V165.4zm38.4 76.8h26.4c18 0 29.2-10 29.2-25.2s-11.2-25.2-29.2-25.2h-26.4v50.4zM273.8 288.8c0-14.8 8.4-25.6 30.8-36 24-11.2 32.8-18 32.8-28.8 0-9.2-7.6-15.6-20.8-15.6-14.4 0-23.6 6.8-23.6 17.2h-36.4c0-28.4 24-49.2 60.4-49.2 35.2 0 58.4 20 58.4 48.8 0 16.8-8.4 29.6-30.8 40-24.8 11.6-32.8 17.6-32.8 28.4 0 8.4 8 14.8 21.2 14.8 15.2 0 25.2-7.6 25.2-18.8h36.4c0 28.8-24.8 50-62 50-34.8 0-58.8-19.6-58.8-50.8z"/>
  </symbol>

  <symbol id="icon-illustrator" viewBox="0 0 512 512">
    <rect fill="currentColor" width="512" height="512" rx="50"/>
    <path fill="#fff" d="M208.5 165.4l-68.4 163.2h40.8l12.8-33.6h67.6l12.8 33.6h41.6L246.9 165.4h-38.4zm-9.6 98.8L218.5 206l19.6 58.2h-39.2zM320 212.2c0-11.6 9.6-21.2 21.2-21.2s21.2 9.6 21.2 21.2-9.6 21.2-21.2 21.2-21.2-9.6-21.2-21.2zm3.2 25.2h36v91.2h-36v-91.2z"/>
  </symbol>

  <!-- Marketing & Business -->
  <symbol id="icon-bullhorn" viewBox="0 0 512 512">
    <path fill="currentColor" d="M480 179.6C498.6 188.4 512 212.1 512 240c0 27.9-13.4 51.6-32 60.4V448c0 17.7-14.3 32-32 32h-32c-17.7 0-32-14.3-32-32v-64H128v64c0 17.7-14.3 32-32 32H64c-17.7 0-32-14.3-32-32V300.4C13.4 291.6 0 267.9 0 240c0-27.9 13.4-51.6 32-60.4V48c0-17.7 14.3-32 32-32h32c17.7 0 32 14.3 32 32v64h256V48c0-17.7 14.3-32 32-32h32c17.7 0 32 14.3 32 32v131.6z"/>
  </symbol>

  <symbol id="icon-chart-line" viewBox="0 0 512 512">
    <path fill="currentColor" d="M64 64c17.7 0 32 14.3 32 32v320H448c17.7 0 32 14.3 32 32s-14.3 32-32 32H64c-17.7 0-32-14.3-32-32V96c0-17.7 14.3-32 32-32zM342.6 233.4c12.5 12.5 12.5 32.8 0 45.3l-128 128c-12.5 12.5-32.8 12.5-45.3 0l-64-64c-12.5-12.5-12.5-32.8 0-45.3s32.8-12.5 45.3 0L192 338.7 361.4 169.4c12.5-12.5 32.8-12.5 45.3 0s12.5 32.8 0 45.3l-64 64z"/>
  </symbol>

  <symbol id="icon-lightbulb" viewBox="0 0 384 512">
    <path fill="currentColor" d="M272 384c9.6-31.9 29.5-59.1 49.2-86.2l0 0c5.2-7.1 10.4-14.2 15.4-21.4c19.8-28.5 31.4-63 31.4-100.3C368 78.8 289.2 0 192 0S16 78.8 16 176c0 37.3 11.6 71.9 31.4 100.3c5 7.2 10.2 14.3 15.4 21.4l0 0c19.8 27.1 39.7 54.4 49.2 86.2H272zM192 512c44.2 0 80-35.8 80-80V416H112v16c0 44.2 35.8 80 80 80zM112 176c0 8.8-7.2 16-16 16s-16-7.2-16-16c0-61.9 50.1-112 112-112c8.8 0 16 7.2 16 16s-7.2 16-16 16c-44.2 0-80 35.8-80 80z"/>
  </symbol>

  <symbol id="icon-tasks" viewBox="0 0 512 512">
    <path fill="currentColor" d="M152.1 38.2c9.9 8.9 10.7 24 1.8 33.9l-72 80c-4.4 4.9-10.6 7.8-17.2 7.9s-12.9-2.4-17.6-7L7 113C-2.3 103.6-2.3 88.4 7 79s24.6-9.4 33.9 0l22.1 22.1 55.1-61.2c8.9-9.9 24-10.7 33.9-1.8zm0 160c9.9 8.9 10.7 24 1.8 33.9l-72 80c-4.4 4.9-10.6 7.8-17.2 7.9s-12.9-2.4-17.6-7L7 273c-9.4-9.4-9.4-24.6 0-33.9s24.6-9.4 33.9 0l22.1 22.1 55.1-61.2c8.9-9.9 24-10.7 33.9-1.8zM224 96c0-17.7 14.3-32 32-32H480c17.7 0 32 14.3 32 32s-14.3 32-32 32H256c-17.7 0-32-14.3-32-32zm0 160c0-17.7 14.3-32 32-32H480c17.7 0 32 14.3 32 32s-14.3 32-32 32H256c-17.7 0-32-14.3-32-32zM160 416c0-17.7 14.3-32 32-32H480c17.7 0 32 14.3 32 32s-14.3 32-32 32H192c-17.7 0-32-14.3-32-32zM48 368a48 48 0 1 1 0 96 48 48 0 1 1 0-96z"/>
  </symbol>

  <symbol id="icon-briefcase" viewBox="0 0 512 512">
    <path fill="currentColor" d="M184 48H328c4.4 0 8 3.6 8 8V96H176V56c0-4.4 3.6-8 8-8zm-56 8V96H64C28.7 96 0 124.7 0 160v96H192 320 512V160c0-35.3-28.7-64-64-64H384V56c0-30.9-25.1-56-56-56H184c-30.9 0-56 25.1-56 56zM512 288H320v32c0 17.7-14.3 32-32 32H224c-17.7 0-32-14.3-32-32V288H0V416c0 35.3 28.7 64 64 64H448c35.3 0 64-28.7 64-64V288z"/>
  </symbol>

  <!-- Social Media -->
  <symbol id="icon-instagram" viewBox="0 0 448 512">
    <path fill="currentColor" d="M224.1 141c-63.6 0-114.9 51.3-114.9 114.9s51.3 114.9 114.9 114.9S339 319.5 339 255.9 287.7 141 224.1 141zm0 189.6c-41.1 0-74.7-33.5-74.7-74.7s33.5-74.7 74.7-74.7 74.7 33.5 74.7 74.7-33.6 74.7-74.7 74.7zm146.4-194.3c0 14.9-12 26.8-26.8 26.8-14.9 0-26.8-12-26.8-26.8s12-26.8 26.8-26.8 26.8 12 26.8 26.8zm76.1 27.2c-1.7-35.9-9.9-67.7-36.2-93.9-26.2-26.2-58-34.4-93.9-36.2-37-2.1-147.9-2.1-184.9 0-35.8 1.7-67.6 9.9-93.9 36.1s-34.4 58-36.2 93.9c-2.1 37-2.1 147.9 0 184.9 1.7 35.9 9.9 67.7 36.2 93.9s58 34.4 93.9 36.2c37 2.1 147.9 2.1 184.9 0 35.9-1.7 67.7-9.9 93.9-36.2 26.2-26.2 34.4-58 36.2-93.9 2.1-37 2.1-147.8 0-184.8zM398.8 388c-7.8 19.6-22.9 34.7-42.6 42.6-29.5 11.7-99.5 9-132.1 9s-102.7 2.6-132.1-9c-19.6-7.8-34.7-22.9-42.6-42.6-11.7-29.5-9-99.5-9-132.1s-2.6-102.7 9-132.1c7.8-19.6 22.9-34.7 42.6-42.6 29.5-11.7 99.5-9 132.1-9s102.7-2.6 132.1 9c19.6 7.8 34.7 22.9 42.6 42.6 11.7 29.5 9 99.5 9 132.1s2.7 102.7-9 132.1z"/>
  </symbol>

  <!-- Code Icon -->
  <symbol id="icon-code" viewBox="0 0 640 512">
    <path fill="currentColor" d="M392.8 1.2c-17-4.9-34.7 5-39.6 22l-128 448c-4.9 17 5 34.7 22 39.6s34.7-5 39.6-22l128-448c4.9-17-5-34.7-22-39.6zm80.6 120.1c-12.5 12.5-12.5 32.8 0 45.3L562.7 256l-89.4 89.4c-12.5 12.5-12.5 32.8 0 45.3s32.8 12.5 45.3 0l112-112c12.5-12.5 12.5-32.8 0-45.3l-112-112c-12.5-12.5-32.8-12.5-45.3 0zm-306.7 0c-12.5-12.5-32.8-12.5-45.3 0l-112 112c-12.5 12.5-12.5 32.8 0 45.3l112 112c12.5 12.5 32.8 12.5 45.3 0s12.5-32.8 0-45.3L77.3 256l89.4-89.4c12.5-12.5 12.5-32.8 0-45.3z"/>
  </symbol>

  <!-- User Icon -->
  <symbol id="icon-user" viewBox="0 0 448 512">
    <path fill="currentColor" d="M224 256c70.7 0 128-57.3 128-128S294.7 0 224 0 96 57.3 96 128s57.3 128 128 128zm89.6 32h-16.7c-22.2 10.2-46.9 16-72.9 16s-50.6-5.8-72.9-16h-16.7C60.2 288 0 348.2 0 422.4V464c0 26.5 21.5 48 48 48h352c26.5 0 48-21.5 48-48v-41.6c0-74.2-60.2-134.4-134.4-134.4z"/>
  </symbol>

  <!-- Search Icon -->
  <symbol id="icon-search" viewBox="0 0 512 512">
    <path fill="currentColor" d="M505 442.7L405.3 343c-4.5-4.5-10.6-7-17-7H372c27.6-35.3 44-79.7 44-128C416 93.1 322.9 0 208 0S0 93.1 0 208s93.1 208 208 208c48.3 0 92.7-16.4 128-44v16.3c0 6.4 2.5 12.5 7 17l99.7 99.7c9.4 9.4 24.6 9.4 33.9 0l28.3-28.3c9.4-9.4 9.4-24.6.1-34zM208 336c-70.7 0-128-57.2-128-128 0-70.7 57.2-128 128-128 70.7 0 128 57.2 128 128 0 70.7-57.2 128-128 128z"/>
  </symbol>

  <!-- Filter Icon -->
  <symbol id="icon-filter" viewBox="0 0 512 512">
    <path fill="currentColor" d="M487.976 0H24.028C2.71 0-8.047 25.866 7.058 40.971L192 225.941V432c0 7.831 3.821 15.17 10.237 19.662l80 55.98C298.02 518.69 320 507.493 320 487.98V225.941l184.947-184.97C520.021 25.896 509.338 0 487.976 0z"/>
  </symbol>

  <!-- Graduation Cap Icon -->
  <symbol id="icon-graduation-cap" viewBox="0 0 640 512">
    <path fill="currentColor" d="M622.34 153.2L343.4 67.5c-15.2-4.67-31.6-4.67-46.79 0L17.66 153.2c-23.54 7.23-23.54 38.36 0 45.59l48.63 14.94c-10.67 13.19-17.23 29.28-17.88 46.9C38.78 266.15 32 276.11 32 288c0 10.78 5.68 19.85 13.86 25.65L20.33 428.53C18.11 438.52 25.71 448 35.94 448h56.11c10.24 0 17.84-9.48 15.62-19.47L82.14 313.65C90.32 307.85 96 298.78 96 288c0-11.57-6.47-21.25-15.66-26.87.76-15.02 8.44-28.3 20.69-36.72L296.6 284.5c9.06 2.78 26.44 6.25 46.79 0l278.95-85.7c23.55-7.24 23.55-38.36 0-45.6zM352.79 315.09c-28.53 8.76-52.84 3.92-65.59 0l-145.02-44.55L128 384c0 35.35 85.96 64 192 64s192-28.65 192-64l-14.18-113.47-145.03 44.56z"/>
  </symbol>

  <!-- Teacher/Chalkboard Icon -->
  <symbol id="icon-chalkboard-teacher" viewBox="0 0 640 512">
    <path fill="currentColor" d="M208 352c-2.39 0-4.78.35-7.06 1.09C187.98 357.3 174.35 360 160 360c-14.35 0-27.98-2.7-40.95-6.91-2.28-.74-4.66-1.09-7.05-1.09C49.94 352-.33 402.48 0 464.62.14 490.88 21.73 512 48 512h224c26.27 0 47.86-21.12 48-47.38.33-62.14-49.94-112.62-112-112.62zm-48-32c53.02 0 96-42.98 96-96s-42.98-96-96-96-96 42.98-96 96 42.98 96 96 96zM592 0H208c-26.47 0-48 22.25-48 49.59V96c23.42 0 45.1 6.78 64 17.8V64h352v288h-64v-64H384v64h-76.24c19.1 16.69 33.12 38.73 39.69 64H592c26.47 0 48-22.25 48-49.59V49.59C640 22.25 618.47 0 592 0z"/>
  </symbol>

  <!-- Star Icon -->
  <symbol id="icon-star" viewBox="0 0 576 512">
    <path fill="currentColor" d="M259.3 17.8L194 150.2 47.9 171.5c-26.2 3.8-36.7 36.1-17.7 54.6l105.7 103-25 145.5c-4.5 26.3 23.2 46 46.4 33.7L288 439.6l130.7 68.7c23.2 12.2 50.9-7.4 46.4-33.7l-25-145.5 105.7-103c19-18.5 8.5-50.8-17.7-54.6L382 150.2 316.7 17.8c-11.7-23.6-45.6-23.9-57.4 0z"/>
  </symbol>

  <!-- Light Bulb Icon -->
  <symbol id="icon-lightbulb" viewBox="0 0 352 512">
    <path fill="currentColor" d="M176 80c-52.94 0-96 43.06-96 96 0 8.84 7.16 16 16 16s16-7.16 16-16c0-35.3 28.72-64 64-64 8.84 0 16-7.16 16-16s-7.16-16-16-16zM96.06 459.17c0 3.15.93 6.22 2.68 8.84l24.51 36.84c2.97 4.46 7.97 7.14 13.32 7.14h78.85c5.36 0 10.36-2.68 13.32-7.14l24.51-36.84c1.74-2.62 2.67-5.7 2.68-8.84l.05-43.18H96.02l.04 43.18zM176 0C73.72 0 0 82.97 0 176c0 44.37 16.45 84.85 43.56 115.78 16.64 18.99 42.74 58.8 52.42 92.16v.06h48v-.12c-.01-4.77-.72-9.51-2.15-14.07-5.59-17.81-22.82-64.77-62.17-109.67-20.54-23.43-31.52-53.15-31.61-84.14-.2-73.64 59.67-128 127.95-128 70.58 0 128 57.42 128 128 0 30.97-11.24 60.85-31.65 84.14-39.11 44.61-56.42 91.47-62.1 109.46a47.507 47.507 0 0 0-2.22 14.3v.1h48v-.05c9.68-33.37 35.78-73.18 52.42-92.16C335.55 260.85 352 220.37 352 176 352 78.8 273.2 0 176 0z"/>
  </symbol>

  <!-- Rocket Icon -->
  <symbol id="icon-rocket" viewBox="0 0 512 512">
    <path fill="currentColor" d="M505.12019,19.09375c-1.18945-5.53125-6.65819-11-12.207-12.1875C460.716,0,435.507,0,410.40747,0,307.17523,0,245.26909,55.20312,199.05238,128H94.83772c-16.34763.01562-35.55658,11.875-42.88664,26.48438L2.51562,253.29688A28.4,28.4,0,0,0,0,264a24.00867,24.00867,0,0,0,24.00582,24H127.81618l-22.47457,22.46875c-11.36521,11.36133-12.99607,32.25781,0,45.25L156.24582,406.625c11.15623,11.1875,32.15619,13.15625,45.27726,0l22.47457-22.46875V488a24.00867,24.00867,0,0,0,24.00581,24,28.55934,28.55934,0,0,0,10.707-2.51562l98.72834-49.39063c14.62888-7.29687,26.50776-26.5,26.50776-42.85937V312.79688c72.59753-46.3125,128.03493-108.40626,128.03493-211.09376C512.07526,76.5,512.07526,51.29688,505.12019,19.09375ZM384.04033,168A40,40,0,1,1,424.05,128,40.02322,40.02322,0,0,1,384.04033,168Z"/>
  </symbol>

  <!-- Book Icon -->
  <symbol id="icon-book" viewBox="0 0 448 512">
    <path fill="currentColor" d="M448 360V24c0-13.3-10.7-24-24-24H96C43 0 0 43 0 96v320c0 53 43 96 96 96h328c13.3 0 24-10.7 24-24v-16c0-7.5-3.5-14.3-8.9-18.7-4.2-15.4-4.2-59.3 0-74.7 5.4-4.3 8.9-11.1 8.9-18.6zM128 134c0-3.3 2.7-6 6-6h212c3.3 0 6 2.7 6 6v20c0 3.3-2.7 6-6 6H134c-3.3 0-6-2.7-6-6v-20zm0 64c0-3.3 2.7-6 6-6h212c3.3 0 6 2.7 6 6v20c0 3.3-2.7 6-6 6H134c-3.3 0-6-2.7-6-6v-20zm253.4 250H96c-17.7 0-32-14.3-32-32 0-17.6 14.4-32 32-32h285.4c-1.9 17.1-1.9 46.9 0 64z"/>
  </symbol>

  <!-- Code Icon -->
  <symbol id="icon-code" viewBox="0 0 640 512">
    <path fill="currentColor" d="M392.8 1.2c-17-4.9-34.7 5-39.6 22l-128 448c-4.9 17 5 34.7 22 39.6s34.7-5 39.6-22l128-448c4.9-17-5-34.7-22-39.6zm80.6 120.1c-12.5 12.5-12.5 32.8 0 45.3L562.7 256l-89.4 89.4c-12.5 12.5-12.5 32.8 0 45.3s32.8 12.5 45.3 0l112-112c12.5-12.5 12.5-32.8 0-45.3l-112-112c-12.5-12.5-32.8-12.5-45.3 0zm-306.7 0c-12.5-12.5-32.8-12.5-45.3 0l-112 112c-12.5 12.5-12.5 32.8 0 45.3l112 112c12.5 12.5 32.8 12.5 45.3 0s12.5-32.8 0-45.3L77.3 256l89.4-89.4c12.5-12.5 12.5-32.8 0-45.3z"/>
  </symbol>

  <symbol id="icon-cog" viewBox="0 0 512 512">
    <path fill="currentColor" d="M495.9 166.6c3.2 8.7.5 18.4-6.4 24.6l-43.3 39.4c1.1 8.3 1.7 16.8 1.7 25.4s-.6 17.1-1.7 25.4l43.3 39.4c6.9 6.2 9.6 15.9 6.4 24.6c-4.4 11.9-9.7 23.3-15.8 34.3l-4.7 8.1c-6.6 11-14 21.4-22.1 31.2c-5.9 7.2-15.7 9.6-24.5 6.8l-55.7-17.7c-13.4 10.3-28.2 18.9-44 25.4l-12.5 57.1c-2 9.1-9 16.3-18.2 17.8c-13.8 2.3-28 3.5-42.5 3.5s-28.7-1.2-42.5-3.5c-9.2-1.5-16.2-8.7-18.2-17.8l-12.5-57.1c-15.8-6.5-30.6-15.1-44-25.4L83.1 425.9c-8.8 2.8-18.6.3-24.5-6.8c-8.1-9.8-15.5-20.2-22.1-31.2l-4.7-8.1c-6.1-11-11.4-22.4-15.8-34.3c-3.2-8.7-.5-18.4 6.4-24.6l43.3-39.4C64.6 273.1 64 264.6 64 256s.6-17.1 1.7-25.4L22.4 191.2c-6.9-6.2-9.6-15.9-6.4-24.6c4.4-11.9 9.7-23.3 15.8-34.3l4.7-8.1c6.6-11 14-21.4 22.1-31.2c5.9-7.2 15.7-9.6 24.5-6.8l55.7 17.7c13.4-10.3 28.2-18.9 44-25.4l12.5-57.1c2-9.1 9-16.3 18.2-17.8C227.3 1.2 241.5 0 256 0s28.7 1.2 42.5 3.5c9.2 1.5 16.2 8.7 18.2 17.8l12.5 57.1c15.8 6.5 30.6 15.1 44 25.4l55.7-17.7c8.8-2.8 18.6-.3 24.5 6.8c8.1 9.8 15.5 20.2 22.1 31.2l4.7 8.1c6.1 11 11.4 22.4 15.8 34.3zM256 336a80 80 0 1 0 0-160 80 80 0 1 0 0 160z"/>
  </symbol>

  <symbol id="icon-mobile" viewBox="0 0 384 512">
    <path fill="currentColor" d="M16 64C16 28.7 44.7 0 80 0H304c35.3 0 64 28.7 64 64V448c0 35.3-28.7 64-64 64H80c-35.3 0-64-28.7-64-64V64zM144 448c0 8.8 7.2 16 16 16h64c8.8 0 16-7.2 16-16s-7.2-16-16-16H160c-8.8 0-16 7.2-16 16zM304 64H80V384H304V64z"/>
  </symbol>

  <symbol id="icon-paintbrush" viewBox="0 0 576 512">
    <path fill="currentColor" d="M339.3 367.1c27.3-3.9 51.9-11.8 73.2-22.2c48.4-23.5 76.5-55.1 76.5-88.9c0-28.3-20.5-53.7-53.7-72.1c-12.2-6.8-26.7-12.4-42.5-16.7c-15.8-4.3-34.2-7.5-54.8-9.2c-20.6-1.7-42.5-2.6-65.3-2.6s-44.7.9-65.3 2.6c-20.6 1.7-39 4.9-54.8 9.2c-15.8 4.3-30.3 9.9-42.5 16.7C20.5 203.3 0 228.7 0 257c0 33.8 28.1 65.4 76.5 88.9c21.3 10.4 45.9 18.3 73.2 22.2c-5.3 6.5-9.5 13.5-12.4 20.9L95.9 490.6c-2.5 6.3-.8 13.5 4.5 18.1s12.5 5.3 18.5 2.1l96.4-51.1c4.8-2.5 9.1-5.7 12.8-9.4l0 0 0 0c3.7 3.7 8 6.9 12.8 9.4l96.4 51.1c6 3.2 13.2 2.6 18.5-2.1s7-11.8 4.5-18.1L318 411.1c-2.9-7.4-7.1-14.4-12.4-20.9zm-218-159c-15.5-5.8-29.2-12.5-40.7-19.9c17.6-9.2 41.5-17.3 69.6-23.1c10.8 21.3 24.8 40.9 41.1 58.3c-24-4.1-47.2-9.5-70.1-15.3zm409.7 19.9c-11.5 7.4-25.2 14.1-40.7 19.9c-22.9 5.8-46.1 11.2-70.1 15.3c16.3-17.4 30.3-37 41.1-58.3c28.1 5.8 52 13.9 69.6 23.1z"/>
  </symbol>

  <symbol id="icon-search-dollar" viewBox="0 0 512 512">
    <path fill="currentColor" d="M416 208c0 45.9-14.9 88.3-40 122.7L502.6 457.4c12.5 12.5 12.5 32.8 0 45.3s-32.8 12.5-45.3 0L330.7 376c-34.4 25.2-76.8 40-122.7 40C93.1 416 0 322.9 0 208S93.1 0 208 0S416 93.1 416 208zM228 104c0-11-9-20-20-20s-20 9-20 20v14c-7.6 1.7-15.2 4.4-22.2 8.5c-13.9 8.3-25.9 22.8-25.8 43.9c.1 20.3 12 33.1 24.7 40.7c11 6.6 24.7 10.8 35.6 14l1.7.5c12.6 3.8 21.8 6.8 28 10.7c5.1 3.2 5.8 5.4 5.9 8.2c.1 5-1.8 8-5.9 10.5c-5 3.1-12.9 5-21.4 4.7c-11.1-.4-21.5-3.9-35.1-8.5c-2.3-.8-4.7-1.6-7.2-2.4c-10.5-3.5-21.8 2.2-25.3 12.6s2.2 21.8 12.6 25.3c1.9.6 4 1.3 6.1 2.1l0 0 0 0c8.3 2.9 17.9 6.2 28.2 8.4V280c0 11 9 20 20 20s20-9 20-20V266.2c8-1.7 16-4.5 23.2-9c14.3-8.9 25.1-24.1 24.8-45c-.3-20.3-11.7-33.4-24.6-41.6c-11.5-7.2-25.9-11.6-37.1-15l0 0-.7-.2c-12.8-3.9-21.9-6.7-28.3-10.5c-5.2-3.1-5.3-4.9-5.3-6.7c0-3.7 1.4-6.5 6.2-9.3c5.4-3.2 13.6-5.1 21.5-5c9.6.1 20.2 2.2 31.2 5.2c10.7 2.8 21.6-3.5 24.5-14.2s-3.5-21.6-14.2-24.5c-6.5-1.7-13.7-3.4-21.1-4.7V104z"/>
  </symbol>

  <symbol id="icon-book" viewBox="0 0 448 512">
    <path fill="currentColor" d="M96 0C43 0 0 43 0 96V416c0 53 43 96 96 96H384h32c17.7 0 32-14.3 32-32s-14.3-32-32-32V384c17.7 0 32-14.3 32-32V32c0-17.7-14.3-32-32-32H384 96zm0 384H352v64H96c-17.7 0-32-14.3-32-32s14.3-32 32-32zm32-240c0-8.8 7.2-16 16-16H336c8.8 0 16 7.2 16 16s-7.2 16-16 16H144c-8.8 0-16-7.2-16-16zm16 48H336c8.8 0 16 7.2 16 16s-7.2 16-16 16H144c-8.8 0-16-7.2-16-16s7.2-16 16-16z"/>
  </symbol>

  <!-- Other Icons -->
  <symbol id="icon-stripe" viewBox="0 0 640 512">
    <path fill="currentColor" d="M165 144.7l-43.3 9.2-.2 142.4c0 26.3 19.8 43.3 46.1 43.3 14.6 0 25.3-2.7 31.2-5.9v-33.8c-5.7 2.3-33.7 10.5-33.7-15.7V221h33.7v-37.8h-33.7zm89.1 51.6l-2.7-13.1H213v153.2h44.3V233.3c10.5-13.8 28.2-11.1 33.9-9.3v-40.8c-6-2.1-26.7-6-37.1 13.1zm92.3-72.3l-44.6 9.5v36.2l44.6-9.5zM44.9 229.3c0-7.9 6.5-10.9 17.2-10.9 15.1 0 34.4 4.6 49.6 12.9v-41.9c-16.6-6.6-33-9.3-49.6-9.3-40.5 0-67.8 21.1-67.8 56.3 0 55 75.8 46.3 75.8 70.2 0 9.3-8.1 12.3-19.8 12.3-16.9 0-38.7-6.9-55.8-16.1v42.4c18.7 8.3 37.7 11.8 55.8 11.8 41.7 0 69.9-20.7 69.9-56.1 0-57.1-76.2-47.5-76.2-71.6zm532.7-40.3c-1.9-.7-3.7-1.4-5.5-2.1-18.6-7.3-38.9-11.1-59.5-11.1-61.3 0-104.2 42.3-104.2 102.3 0 37.5 15.9 65.1 44.3 78.4 17.3 8.1 37.7 12.3 58.8 12.3 21.1 0 41.5-4.2 58.8-12.3l5.5-2.1c28.4-13.3 44.3-40.9 44.3-78.4 0-37.5-15.9-65.1-44.3-78.4zm-15.9 131.2c-9.9 4.7-21.2 7.1-33.7 7.1s-23.8-2.4-33.7-7.1c-18.4-8.6-28.8-25.5-28.8-46.5s10.4-37.9 28.8-46.5c9.9-4.7 21.2-7.1 33.7-7.1s23.8 2.4 33.7 7.1c18.4 8.6 28.8 25.5 28.8 46.5s-10.4 37.9-28.8 46.5z"/>
  </symbol>

  <symbol id="icon-api" viewBox="0 0 640 512">
    <path fill="currentColor" d="M392.8 1.2c-17-4.9-34.7 5-39.6 22l-128 448c-4.9 17 5 34.7 22 39.6s34.7-5 39.6-22l128-448c4.9-17-5-34.7-22-39.6zm80.6 120.1c-12.5 12.5-12.5 32.8 0 45.3L562.7 256l-89.4 89.4c-12.5 12.5-12.5 32.8 0 45.3s32.8 12.5 45.3 0l112-112c12.5-12.5 12.5-32.8 0-45.3l-112-112c-12.5-12.5-32.8-12.5-45.3 0zm-306.7 0c-12.5-12.5-32.8-12.5-45.3 0l-112 112c-12.5 12.5-12.5 32.8 0 45.3l112 112c12.5 12.5 32.8 12.5 45.3 0s12.5-32.8 0-45.3L77.3 256l89.4-89.4c12.5-12.5 12.5-32.8 0-45.3z"/>
  </symbol>

  <symbol id="icon-architecture" viewBox="0 0 576 512">
    <path fill="currentColor" d="M0 80C0 53.5 21.5 32 48 32h96c26.5 0 48 21.5 48 48v96c0 26.5-21.5 48-48 48H48c-26.5 0-48-21.5-48-48V80zM64 96v64h64V96H64zM0 336c0-26.5 21.5-48 48-48h96c26.5 0 48 21.5 48 48v96c0 26.5-21.5 48-48 48H48c-26.5 0-48-21.5-48-48V336zm64 16v64h64V352H64zM288 80c0-26.5 21.5-48 48-48h96c26.5 0 48 21.5 48 48v96c0 26.5-21.5 48-48 48H336c-26.5 0-48-21.5-48-48V80zm64 16v64h64V96H352zM288 336c0-26.5 21.5-48 48-48h96c26.5 0 48 21.5 48 48v96c0 26.5-21.5 48-48 48H336c-26.5 0-48-21.5-48-48V336zm64 16v64h64V352H352z"/>
  </symbol>

  <symbol id="icon-error-circle" viewBox="0 0 512 512">
    <path fill="currentColor" d="M256 512A256 256 0 1 0 256 0a256 256 0 1 0 0 512zm0-384c13.3 0 24 10.7 24 24V264c0 13.3-10.7 24-24 24s-24-10.7-24-24V152c0-13.3 10.7-24 24-24zM224 352a32 32 0 1 1 64 0 32 32 0 1 1 -64 0z"/>
  </symbol>

  <symbol id="icon-git-pull" viewBox="0 0 512 512">
    <path fill="currentColor" d="M80 96A48 48 0 1 0 80 0a48 48 0 1 0 0 96zm-16 32c-35.3 0-64 28.7-64 64V400c0 44.2 35.8 80 80 80c26.2 0 49.4-12.6 64-32c14.6 19.4 37.8 32 64 32c44.2 0 80-35.8 80-80c0-5.5-.6-10.8-1.6-16H416c17.7 0 32-14.3 32-32V288c0-35.3-28.7-64-64-64c-5.5 0-10.8.7-15.8 2L304 162.3V128c0-35.3-28.7-64-64-64s-64 28.7-64 64v34.3L112 226.1c-5-1.3-10.3-2-15.8-2zM208 400a48 48 0 1 0 -96 0 48 48 0 1 0 96 0zm176-48a48 48 0 1 0 0-96 48 48 0 1 0 0 96z"/>
  </symbol>

  <symbol id="icon-grid" viewBox="0 0 448 512">
    <path fill="currentColor" d="M128 136c0-22.1-17.9-40-40-40L40 96C17.9 96 0 113.9 0 136l0 48c0 22.1 17.9 40 40 40H88c22.1 0 40-17.9 40-40l0-48zm0 192c0-22.1-17.9-40-40-40H40c-22.1 0-40 17.9-40 40l0 48c0 22.1 17.9 40 40 40H88c22.1 0 40-17.9 40-40V328zm32-192v48c0 22.1 17.9 40 40 40h48c22.1 0 40-17.9 40-40V136c0-22.1-17.9-40-40-40l-48 0c-22.1 0-40 17.9-40 40zM288 328c0-22.1-17.9-40-40-40H200c-22.1 0-40 17.9-40 40l0 48c0 22.1 17.9 40 40 40h48c22.1 0 40-17.9 40-40V328zm32-192v48c0 22.1 17.9 40 40 40h48c22.1 0 40-17.9 40-40V136c0-22.1-17.9-40-40-40l-48 0c-22.1 0-40 17.9-40 40zM448 328c0-22.1-17.9-40-40-40H360c-22.1 0-40 17.9-40 40v48c0 22.1 17.9 40 40 40h48c22.1 0 40-17.9 40-40V328z"/>
  </symbol>

  <symbol id="icon-settings" viewBox="0 0 512 512">
    <path fill="currentColor" d="M495.9 166.6c3.2 8.7.5 18.4-6.4 24.6l-43.3 39.4c1.1 8.3 1.7 16.8 1.7 25.4s-.6 17.1-1.7 25.4l43.3 39.4c6.9 6.2 9.6 15.9 6.4 24.6c-4.4 11.9-9.7 23.3-15.8 34.3l-4.7 8.1c-6.6 11-14 21.4-22.1 31.2c-5.9 7.2-15.7 9.6-24.5 6.8l-55.7-17.7c-13.4 10.3-28.2 18.9-44 25.4l-12.5 57.1c-2 9.1-9 16.3-18.2 17.8c-13.8 2.3-28 3.5-42.5 3.5s-28.7-1.2-42.5-3.5c-9.2-1.5-16.2-8.7-18.2-17.8l-12.5-57.1c-15.8-6.5-30.6-15.1-44-25.4L83.1 425.9c-8.8 2.8-18.6.3-24.5-6.8c-8.1-9.8-15.5-20.2-22.1-31.2l-4.7-8.1c-6.1-11-11.4-22.4-15.8-34.3c-3.2-8.7-.5-18.4 6.4-24.6l43.3-39.4C64.6 273.1 64 264.6 64 256s.6-17.1 1.7-25.4L22.4 191.2c-6.9-6.2-9.6-15.9-6.4-24.6c4.4-11.9 9.7-23.3 15.8-34.3l4.7-8.1c6.6-11 14-21.4 22.1-31.2c5.9-7.2 15.7-9.6 24.5-6.8l55.7 17.7c13.4-10.3 28.2-18.9 44-25.4l12.5-57.1c2-9.1 9-16.3 18.2-17.8C227.3 1.2 241.5 0 256 0s28.7 1.2 42.5 3.5c9.2 1.5 16.2 8.7 18.2 17.8l12.5 57.1c15.8 6.5 30.6 15.1 44 25.4l55.7-17.7c8.8-2.8 18.6-.3 24.5 6.8c8.1 9.8 15.5 20.2 22.1 31.2l4.7 8.1c6.1 11 11.4 22.4 15.8 34.3zM256 336a80 80 0 1 0 0-160 80 80 0 1 0 0 160z"/>
  </symbol>

  <symbol id="icon-jest" viewBox="0 0 448 512">
    <path fill="currentColor" d="M239.1 6.3l-208 78c-18.7 7-31.1 25-31.1 45v225.1c0 18.2 10.3 34.8 26.5 42.9l208 104c13.5 6.8 29.4 6.8 42.9 0l208-104c16.3-8.1 26.5-24.8 26.5-42.9V129.3c0-20-12.4-37.9-31.1-45l-208-78C262 2.2 250 2.2 239.1 6.3zM256 68.4l192 72v1.1l-192 78-192-78v-1.1l192-72zm-32 356V275.5l-160-65v133.9l160 80z"/>
  </symbol>

  <symbol id="icon-dev" viewBox="0 0 448 512">
    <path fill="currentColor" d="M120.12 208.29c-3.88-2.9-7.77-4.35-11.65-4.35H91.03v104.47h17.45c3.88 0 7.77-1.45 11.65-4.35 3.88-2.9 5.82-7.25 5.82-13.06v-69.65c-.01-5.8-1.96-10.16-5.83-13.06zM404.1 32H43.9C19.7 32 .06 51.59 0 75.8v360.4C.06 460.41 19.7 480 43.9 480h360.2c24.21 0 43.84-19.59 43.9-43.8V75.8c-.06-24.21-19.7-43.8-43.9-43.8zM154.2 291.19c0 18.81-11.61 47.31-48.36 47.25h-46.4V172.98h47.38c35.44 0 47.36 28.46 47.37 47.28l.01 70.93zm100.68-88.66H201.6v38.42h32.57v29.57H201.6v38.41h53.29v29.57h-62.18c-11.16.29-20.44-8.53-20.72-19.69V193.7c-.27-11.15 8.56-20.41 19.71-20.69h63.19l-.01 29.52zm103.64 115.29c-13.2 30.75-36.85 24.63-47.44 0l-38.53-144.8h32.57l29.71 113.72 29.57-113.72h32.58l-38.46 144.8z"/>
  </symbol>

  <!-- Hero Illustration -->
  <symbol id="icon-hero" viewBox="0 0 600 500">
    <!-- Background circles -->
    <circle cx="300" cy="250" r="200" fill="url(#gradient1)" opacity="0.1" />
    <circle cx="300" cy="250" r="150" fill="url(#gradient2)" opacity="0.15" />
    
    <!-- Main shapes - code/learning theme -->
    <rect x="150" y="150" width="300" height="200" rx="20" fill="url(#gradient3)" opacity="0.9" />
    
    <!-- Code lines inside rectangle -->
    <line x1="180" y1="180" x2="280" y2="180" stroke="#7653FC" strokeWidth="6" strokeLinecap="round" />
    <line x1="180" y1="210" x2="350" y2="210" stroke="#FF6B35" strokeWidth="6" strokeLinecap="round" />
    <line x1="180" y1="240" x2="320" y2="240" stroke="#1CC5DC" strokeWidth="6" strokeLinecap="round" />
    <line x1="180" y1="270" x2="380" y2="270" stroke="#7653FC" strokeWidth="6" strokeLinecap="round" />
    <line x1="180" y1="300" x2="300" y2="300" stroke="#FF6B35" strokeWidth="6" strokeLinecap="round" />
    
    <!-- Decorative elements -->
    <circle cx="420" cy="200" r="40" fill="#FF6B35" opacity="0.2" />
    <circle cx="180" cy="330" r="30" fill="#1CC5DC" opacity="0.2" />
    
    <!-- Corner stars with animation class -->
    <g class="hero-star">
      <path d="M 50 50 L 55 60 L 65 62 L 57 70 L 59 80 L 50 75 L 41 80 L 43 70 L 35 62 L 45 60 Z" fill="#FFD700" />
    </g>
    <g class="hero-star">
      <path d="M 550 50 L 555 60 L 565 62 L 557 70 L 559 80 L 550 75 L 541 80 L 543 70 L 535 62 L 545 60 Z" fill="#FFD700" />
    </g>
    <g class="hero-star">
      <path d="M 50 450 L 55 460 L 65 462 L 57 470 L 59 480 L 50 475 L 41 480 L 43 470 L 35 462 L 45 460 Z" fill="#FFD700" />
    </g>
    <g class="hero-star">
      <path d="M 550 450 L 555 460 L 565 462 L 557 470 L 559 480 L 550 475 L 541 480 L 543 470 L 535 462 L 545 460 Z" fill="#FFD700" />
    </g>
    
    <!-- Floating particles with animation class -->
    <circle cx="480" cy="300" r="8" fill="#7653FC" class="hero-particle" />
    <circle cx="120" cy="180" r="6" fill="#FF6B35" class="hero-particle" />
    <circle cx="500" cy="380" r="7" fill="#1CC5DC" class="hero-particle" />
    <circle cx="140" cy="420" r="5" fill="#7653FC" class="hero-particle" />
    
    <!-- Gradients -->
    <defs>
      <linearGradient id="gradient1" x1="0%" y1="0%" x2="100%" y2="100%">
        <stop offset="0%" stopColor="#7653FC" />
        <stop offset="100%" stopColor="#1CC5DC" />
      </linearGradient>
      <linearGradient id="gradient2" x1="0%" y1="0%" x2="100%" y2="100%">
        <stop offset="0%" stopColor="#FF6B35" />
        <stop offset="100%" stopColor="#7653FC" />
      </linearGradient>
      <linearGradient id="gradient3" x1="0%" y1="0%" x2="100%" y2="100%">
        <stop offset="0%" stopColor="#f5f5f5" />
        <stop offset="100%" stopColor="#e8e8e8" />
      </linearGradient>
    </defs>
  </symbol>
</svg>
