<?xml version="1.0" encoding="UTF-8" standalone="no" ?>
<!DOCTYPE svg PUBLIC "-//W3C//DTD SVG 1.1//EN" "http://www.w3.org/Graphics/SVG/1.1/DTD/svg11.dtd">
<svg xmlns="http://www.w3.org/2000/svg" xmlns:xlink="http://www.w3.org/1999/xlink" version="1.1" width="140" height="70" viewBox="-54 203.4 1200 628" xml:space="preserve">
<desc>Created with Fabric.js 5.2.4</desc>
<defs>
</defs>
<g transform="matrix(1 0 0 1 600 314)" id="16d1ef49-2b1c-451c-bf3d-ee4aa1c0af05"  >
<rect style="stroke: none; stroke-width: 1; stroke-dasharray: none; stroke-linecap: butt; stroke-dashoffset: 0; stroke-linejoin: miter; stroke-miterlimit: 4; fill: rgb(255,255,255); fill-rule: nonzero; opacity: 1; visibility: hidden;" vector-effect="non-scaling-stroke"  x="-600" y="-314" rx="0" ry="0" width="1200" height="628" />
</g>
<g transform="matrix(Infinity NaN NaN Infinity 0 0)" id="7cfab467-7fe4-4eeb-bdc0-a9d0bc2e6074"  >
</g>
<g transform="matrix(29.03 0 0 28.34 549.98 530.69)"  >
<g style="" vector-effect="non-scaling-stroke"   >
		<g transform="matrix(0.02 0 0 0.02 14.9 -2.65)"  >
<path style="stroke: none; stroke-width: 1; stroke-dasharray: none; stroke-linecap: butt; stroke-dashoffset: 0; stroke-linejoin: miter; stroke-miterlimit: 4; fill: rgb(13, 12, 35); fill-rule: nonzero; opacity: 1;" vector-effect="non-scaling-stroke"  transform=" translate(-213, -221.5)" d="M 0 0 L 419 0 L 419 114 L 147 115 L 146 172 L 369 172 L 399 173 L 399 270 L 147 271 L 146 328 L 425 328 L 426 442 L 425 443 L 1 443 L 0 442 z" stroke-linecap="round" />
</g>
		<g transform="matrix(0.02 0 0 0.02 -13.76 -2.66)"  >
<path style="stroke: none; stroke-width: 1; stroke-dasharray: none; stroke-linecap: butt; stroke-dashoffset: 0; stroke-linejoin: miter; stroke-miterlimit: 4; fill: rgb(13, 12, 35); fill-rule: nonzero; opacity: 1;" vector-effect="non-scaling-stroke"  transform=" translate(-6, -229)" d="M 0 0 L 35 0 L 67 3 L 91 7 L 119 14 L 144 23 L 169 35 L 186 45 L 205 59 L 215 68 L 223 75 L 236 89 L 248 105 L 259 123 L 266 137 L 251 148 L 240 155 L 223 164 L 204 171 L 185 176 L 166 179 L 142 180 L 130 180 L 126 175 L 119 163 L 108 150 L 96 141 L 80 133 L 65 128 L 49 125 L 24 123 L 8 123 L -12 125 L -31 129 L -47 135 L -62 143 L -76 154 L -85 165 L -91 175 L -96 187 L -99 199 L -100 206 L -100 253 L -96 272 L -91 284 L -83 296 L -74 306 L -64 314 L -50 322 L -35 328 L -14 333 L 1 335 L 36 335 L 58 332 L 77 327 L 91 321 L 102 314 L 112 305 L 119 297 L 127 283 L 129 279 L 161 279 L 183 282 L 203 287 L 219 293 L 236 301 L 253 312 L 265 321 L 263 326 L 254 342 L 246 354 L 234 370 L 220 385 L 209 396 L 195 407 L 182 416 L 167 425 L 146 435 L 127 442 L 103 449 L 77 454 L 52 457 L 40 458 L -2 458 L -24 456 L -50 452 L -75 446 L -92 441 L -112 433 L -137 421 L -155 410 L -169 400 L -180 391 L -193 379 L -207 364 L -220 346 L -229 331 L -240 308 L -247 287 L -252 264 L -254 247 L -254 211 L -250 184 L -243 159 L -233 135 L -223 117 L -211 100 L -199 86 L -180 67 L -163 54 L -148 44 L -132 35 L -107 23 L -74 12 L -48 6 L -22 2 z" stroke-linecap="round" />
</g>
		<g transform="matrix(0.02 0 0 0.02 2.65 -2.65)"  >
<path style="stroke: none; stroke-width: 1; stroke-dasharray: none; stroke-linecap: butt; stroke-dashoffset: 0; stroke-linejoin: miter; stroke-miterlimit: 4; fill: rgb(13, 12, 35); fill-rule: nonzero; opacity: 1;" vector-effect="non-scaling-stroke"  transform=" translate(-239, -221.5)" d="M 0 0 L 226 0 L 251 2 L 278 6 L 305 12 L 338 23 L 358 32 L 375 41 L 396 55 L 407 64 L 417 73 L 429 85 L 440 99 L 450 114 L 460 133 L 466 148 L 472 167 L 476 187 L 478 204 L 478 238 L 475 262 L 469 286 L 462 305 L 454 322 L 444 338 L 435 350 L 424 363 L 410 377 L 393 390 L 376 401 L 358 411 L 334 421 L 307 430 L 281 436 L 255 440 L 235 442 L 215 443 L 1 443 L 0 440 L 4 412 L 10 390 L 18 370 L 29 349 L 41 332 L 50 321 L 60 310 L 68 303 L 83 291 L 101 280 L 108 276 L 110 276 L 110 321 L 214 320 L 240 318 L 261 314 L 276 309 L 292 301 L 302 293 L 310 285 L 318 271 L 323 255 L 325 240 L 325 204 L 323 187 L 318 171 L 311 159 L 302 149 L 290 140 L 273 132 L 256 127 L 236 124 L 224 123 L 110 122 L 110 167 L 105 165 L 90 156 L 76 146 L 65 136 L 57 129 L 44 115 L 31 97 L 21 79 L 12 59 L 5 35 L 1 13 z" stroke-linecap="round" />
</g>
		<g transform="matrix(0.02 0 0 0.02 -4.77 -2.65)"  >
<path style="stroke: none; stroke-width: 1; stroke-dasharray: none; stroke-linecap: butt; stroke-dashoffset: 0; stroke-linejoin: miter; stroke-miterlimit: 4; fill: rgb(253,99,0); fill-rule: nonzero; opacity: 1;" vector-effect="non-scaling-stroke"  transform=" translate(-5, -226.5)" d="M 0 0 L 8 0 L 12 2 L 14 13 L 18 40 L 22 57 L 29 78 L 37 96 L 47 114 L 58 130 L 67 141 L 78 153 L 86 160 L 97 170 L 115 183 L 137 195 L 152 202 L 180 211 L 205 216 L 226 218 L 232 224 L 232 229 L 227 234 L 192 239 L 169 245 L 149 252 L 127 263 L 106 276 L 92 287 L 80 298 L 73 305 L 64 316 L 54 329 L 47 340 L 38 356 L 30 373 L 23 392 L 17 418 L 14 437 L 13 447 L 9 453 L 1 453 L -2 450 L -5 434 L -10 404 L -17 380 L -27 357 L -38 337 L -50 321 L -62 307 L -72 296 L -80 289 L -95 277 L -109 268 L -123 260 L -144 250 L -162 244 L -188 238 L -213 235 L -218 233 L -222 229 L -221 222 L -216 218 L -191 215 L -168 210 L -151 205 L -130 196 L -109 185 L -92 173 L -78 161 L -70 154 L -56 140 L -46 127 L -34 108 L -22 85 L -14 63 L -8 39 L -4 8 L -2 1 z" stroke-linecap="round" />
</g>
		<g transform="matrix(0.02 0 0 0.02 -2.2 6.43)"  >
<path style="stroke: none; stroke-width: 1; stroke-dasharray: none; stroke-linecap: butt; stroke-dashoffset: 0; stroke-linejoin: miter; stroke-miterlimit: 4; fill: rgb(13, 12, 35); fill-rule: nonzero; opacity: 1;" vector-effect="non-scaling-stroke"  transform=" translate(-9.5, -74.5)" d="M 0 0 L 13 0 L 33 2 L 48 6 L 62 13 L 72 22 L 78 30 L 84 42 L 84 45 L 57 45 L 50 34 L 40 27 L 32 24 L 17 22 L -4 22 L -19 25 L -28 29 L -33 34 L -35 37 L -35 49 L -30 55 L -20 59 L -5 61 L 34 64 L 53 67 L 66 72 L 74 77 L 81 84 L 85 93 L 86 97 L 86 111 L 83 121 L 75 132 L 65 139 L 49 145 L 34 148 L 23 149 L 5 149 L -15 147 L -31 143 L -45 136 L -55 127 L -61 119 L -66 109 L -67 102 L -40 102 L -35 112 L -27 119 L -19 123 L -8 126 L 0 127 L 27 127 L 44 124 L 54 119 L 59 113 L 60 110 L 60 100 L 56 94 L 45 89 L 20 86 L -16 83 L -34 79 L -43 75 L -52 69 L -58 61 L -62 48 L -61 36 L -57 26 L -50 17 L -40 10 L -29 5 L -17 2 z" stroke-linecap="round" />
</g>
		<g transform="matrix(0.02 0 0 0.02 6.97 5.75)"  >
<path style="stroke: none; stroke-width: 1; stroke-dasharray: none; stroke-linecap: butt; stroke-dashoffset: 0; stroke-linejoin: miter; stroke-miterlimit: 4; fill: rgb(13, 12, 35); fill-rule: nonzero; opacity: 1;" vector-effect="non-scaling-stroke"  transform=" translate(-61, -99.5)" d="M 0 0 L 8 0 L 8 78 L 13 73 L 22 65 L 38 57 L 56 53 L 82 53 L 97 56 L 111 62 L 120 69 L 127 76 L 134 88 L 137 98 L 138 106 L 138 198 L 124 199 L 113 198 L 112 108 L 109 96 L 104 88 L 94 81 L 82 77 L 74 76 L 55 76 L 39 79 L 25 86 L 20 90 L 13 100 L 10 109 L 9 119 L 8 198 L -16 198 L -16 1 z" stroke-linecap="round" />
</g>
		<g transform="matrix(0.02 0 0 0.02 16.55 6.43)"  >
<path style="stroke: none; stroke-width: 1; stroke-dasharray: none; stroke-linecap: butt; stroke-dashoffset: 0; stroke-linejoin: miter; stroke-miterlimit: 4; fill: rgb(13, 12, 35); fill-rule: nonzero; opacity: 1;" vector-effect="non-scaling-stroke"  transform=" translate(-13.5, -74.5)" d="M 0 0 L 27 0 L 45 3 L 61 9 L 74 17 L 82 24 L 90 35 L 95 45 L 99 59 L 100 67 L 100 82 L 97 98 L 92 110 L 85 121 L 75 131 L 62 139 L 46 145 L 32 148 L 22 149 L 6 149 L -11 147 L -28 142 L -42 135 L -52 127 L -60 118 L -66 108 L -71 93 L -73 76 L -72 61 L -68 46 L -61 32 L -53 22 L -41 13 L -27 6 L -13 2 z M 1 22 L -11 24 L -22 28 L -32 34 L -40 43 L -44 51 L -46 58 L -46 90 L -42 102 L -36 111 L -27 118 L -19 122 L -3 126 L 4 127 L 23 127 L 40 124 L 52 119 L 61 113 L 67 106 L 72 95 L 74 82 L 74 68 L 72 53 L 66 41 L 58 33 L 45 26 L 33 23 L 25 22 z" stroke-linecap="round" />
</g>
		<g transform="matrix(0.02 0 0 0.02 11.76 6.43)"  >
<path style="stroke: none; stroke-width: 1; stroke-dasharray: none; stroke-linecap: butt; stroke-dashoffset: 0; stroke-linejoin: miter; stroke-miterlimit: 4; fill: rgb(13, 12, 35); fill-rule: nonzero; opacity: 1;" vector-effect="non-scaling-stroke"  transform=" translate(-14, -74.5)" d="M 0 0 L 28 0 L 48 4 L 61 9 L 73 16 L 83 25 L 90 35 L 96 47 L 99 59 L 100 67 L 100 82 L 97 98 L 92 110 L 86 120 L 74 132 L 60 140 L 46 145 L 32 148 L 22 149 L 6 149 L -11 147 L -28 142 L -40 136 L -52 127 L -60 118 L -66 107 L -70 97 L -72 88 L -72 61 L -68 46 L -61 32 L -52 22 L -43 14 L -27 6 L -13 2 z M 1 22 L -14 25 L -24 29 L -33 35 L -40 43 L -45 54 L -46 58 L -46 89 L -42 102 L -34 113 L -25 119 L -13 124 L 4 127 L 23 127 L 40 124 L 53 119 L 62 112 L 69 103 L 72 96 L 74 84 L 74 64 L 71 50 L 65 40 L 58 33 L 45 26 L 34 23 L 25 22 z" stroke-linecap="round" />
</g>
		<g transform="matrix(0.02 0 0 0.02 2.23 6.43)"  >
<path style="stroke: none; stroke-width: 1; stroke-dasharray: none; stroke-linecap: butt; stroke-dashoffset: 0; stroke-linejoin: miter; stroke-miterlimit: 4; fill: rgb(13, 12, 35); fill-rule: nonzero; opacity: 1;" vector-effect="non-scaling-stroke"  transform=" translate(-12, -74.5)" d="M 0 0 L 28 0 L 44 3 L 57 8 L 71 16 L 82 26 L 89 36 L 96 51 L 95 53 L 69 53 L 61 40 L 57 35 L 46 28 L 33 24 L 25 23 L 2 23 L -14 26 L -26 31 L -37 41 L -43 53 L -45 66 L -45 83 L -43 95 L -39 104 L -33 112 L -23 119 L -12 123 L 5 126 L 23 126 L 40 123 L 54 116 L 59 112 L 66 101 L 68 96 L 96 96 L 91 110 L 84 120 L 76 129 L 63 138 L 49 144 L 32 148 L 21 149 L 7 149 L -10 147 L -25 143 L -41 135 L -50 128 L -58 120 L -66 106 L -71 89 L -72 82 L -72 70 L -70 55 L -65 40 L -58 29 L -50 20 L -37 11 L -26 6 L -12 2 z" stroke-linecap="round" />
</g>
		<g transform="matrix(0.02 0 0 0.02 19.8 5.74)"  >
<path style="stroke: none; stroke-width: 1; stroke-dasharray: none; stroke-linecap: butt; stroke-dashoffset: 0; stroke-linejoin: miter; stroke-miterlimit: 4; fill: rgb(13, 12, 35); fill-rule: nonzero; opacity: 1;" vector-effect="non-scaling-stroke"  transform=" translate(-11.5, -99)" d="M 0 0 L 23 0 L 24 27 L 24 197 L 23 198 L -1 198 L -1 1 z" stroke-linecap="round" />
</g>
</g>
</g>
</svg>